Coordinates
version=1
nRows=10
nColumns=40
inDegrees=yes

Units are S.I. units (second, meters, Newtons, ...)
If the header above contains a line with 'inDegrees', this indicates whether rotational values are in degrees (yes) or radians (no).

endheader
time	pelvis_tilt	pelvis_list	pelvis_rotation	pelvis_tx	pelvis_ty	pelvis_tz	hip_flexion_r	hip_adduction_r	hip_rotation_r	knee_angle_r	knee_angle_r_beta	ankle_angle_r	subtalar_angle_r	mtp_angle_r	hip_flexion_l	hip_adduction_l	hip_rotation_l	knee_angle_l	knee_angle_l_beta	ankle_angle_l	subtalar_angle_l	mtp_angle_l	lumbar_extension	lumbar_bending	lumbar_rotation	arm_flex_r	arm_add_r	arm_rot_r	elbow_flex_r	pro_sup_r	wrist_flex_r	wrist_dev_r	arm_flex_l	arm_add_l	arm_rot_l	elbow_flex_l	pro_sup_l	wrist_flex_l	wrist_dev_l
      2.90000000	     -8.65236739	     -1.90046972	     -7.08245229	     -0.28434300	      1.04084305	     -1.04958437	     12.73416083	     -7.97874878	    -10.21960994	     88.48080674	      1.54428140	    -19.91751346	      0.00000000	      0.00000000	     17.97462898	      0.43260587	    -10.55948199	     18.61516629	      0.32489594	     -2.65772360	      0.00000000	      0.00000000	     -3.86709052	     -0.76633581	      6.70396128	     78.84142144	    -24.25790859	     40.12203306	     53.95848912	     84.19053834	      0.00000000	      0.00000000	     83.47858955	    -20.84944906	     49.67364572	     45.21808741	     82.97956959	      0.00000000	      0.00000000
      2.90500000	     -8.73673602	     -1.88749152	     -7.00111174	     -0.28473616	      1.04043533	     -1.04965727	     12.75205985	     -7.96034492	    -10.25269475	     88.34892352	      1.54197961	    -19.97566502	      0.00000000	      0.00000000	     18.22260229	      0.42170055	    -10.53833281	     18.87815546	      0.32948597	     -2.58556643	      0.00000000	      0.00000000	     -3.86189357	     -0.79607672	      6.69146539	     78.88303315	    -24.37139071	     40.04980898	     54.01849270	     84.26743894	      0.00000000	      0.00000000	     83.54204705	    -20.75394988	     49.69084901	     45.17620568	     82.78443729	      0.00000000	      0.00000000
      2.91000000	     -8.83165775	     -1.86624183	     -6.94508336	     -0.28520827	      1.03993996	     -1.04968619	     12.79722507	     -7.92570774	    -10.25481281	     88.25815021	      1.54039531	    -19.93046126	      0.00000000	      0.00000000	     18.48743249	      0.40907126	    -10.52672237	     19.15625422	      0.33433971	     -2.42081073	      0.00000000	      0.00000000	     -3.85462161	     -0.80848843	      6.60282919	     79.10650104	    -24.33768973	     40.29152728	     53.91093724	     84.11185889	      0.00000000	      0.00000000	     83.66883904	    -20.87801238	     49.94496807	     45.21674304	     82.61799342	      0.00000000	      0.00000000
      2.91500000	     -8.87447714	     -1.82736116	     -6.92088191	     -0.28561461	      1.03962843	     -1.04971030	     12.80402901	     -7.93250801	    -10.23651795	     88.13731620	      1.53828636	    -20.07936050	      0.00000000	      0.00000000	     18.65245426	      0.42709242	    -10.52945873	     19.31644157	      0.33713551	     -2.51351907	      0.00000000	      0.00000000	     -3.90977683	     -0.85456486	      6.54337214	     79.18099277	    -24.29773071	     40.20949556	     53.94013030	     84.30862266	      0.00000000	      0.00000000	     83.64925024	    -20.88296754	     49.65270124	     45.15789343	     82.77168465	      0.00000000	      0.00000000
      2.92000000	     -8.94683695	     -1.81897065	     -6.86978949	     -0.28603789	      1.03916725	     -1.04972043	     12.82891355	     -7.91771111	    -10.28540843	     88.04403645	      1.53665832	    -20.02466313	      0.00000000	      0.00000000	     18.90925603	      0.39150374	    -10.60132912	     19.63646745	      0.34272101	     -2.37783131	      0.00000000	      0.00000000	     -3.91794266	     -0.89375421	      6.60324120	     79.24271793	    -24.45900312	     40.09391332	     53.99131766	     84.49913885	      0.00000000	      0.00000000	     83.82890639	    -20.70801497	     49.91128955	     44.95207539	     82.10494085	      0.00000000	      0.00000000
      2.92500000	     -9.03941907	     -1.83417142	     -6.80650810	     -0.28635470	      1.03870951	     -1.04983468	     12.84648682	     -7.88037876	    -10.33018390	     87.92300464	      1.53454592	    -20.02369528	      0.00000000	      0.00000000	     19.16266406	      0.35238556	    -10.57756550	     19.91671764	      0.34761230	     -2.23289395	      0.00000000	      0.00000000	     -3.91277967	     -0.84827586	      6.50196573	     79.44434267	    -24.38051405	     40.26383836	     53.85289216	     84.48303536	      0.00000000	      0.00000000	     83.81006242	    -20.84836025	     49.77818243	     45.08737157	     82.39600000	      0.00000000	      0.00000000
      2.93000000	     -9.10890101	     -1.81661445	     -6.79092741	     -0.28679084	      1.03824197	     -1.04982966	     12.88646691	     -7.85017754	    -10.29228542	     87.83206143	      1.53295866	    -20.04325687	      0.00000000	      0.00000000	     19.39452867	      0.33229361	    -10.59558108	     20.18206885	      0.35224355	     -2.17443184	      0.00000000	      0.00000000	     -3.91875310	     -0.86822864	      6.51845807	     79.55512682	    -24.43030184	     40.25769024	     53.84142671	     84.48578805	      0.00000000	      0.00000000	     83.85049260	    -20.79145052	     49.68977347	     45.08106811	     82.38041389	      0.00000000	      0.00000000
      2.93500000	     -9.16707456	     -1.75686152	     -6.75564192	     -0.28711502	      1.03779591	     -1.04991968	     12.89767380	     -7.90774445	    -10.30533996	     87.73949490	      1.53134307	    -20.04346116	      0.00000000	      0.00000000	     19.55648323	      0.38546609	    -10.56072547	     20.32048945	      0.35465945	     -2.13142588	      0.00000000	      0.00000000	     -3.93367891	     -0.96629737	      6.58502185	     79.51013016	    -24.59539557	     39.99626031	     54.02155865	     84.54208380	      0.00000000	      0.00000000	     84.02351992	    -20.61722897	     50.05293577	     44.84746927	     81.73773047	      0.00000000	      0.00000000
      2.94000000	     -9.21972615	     -1.71218328	     -6.76132053	     -0.28750197	      1.03729581	     -1.04989519	     12.92248321	     -7.91814662	    -10.26192398	     87.64346643	      1.52966706	    -20.06402665	      0.00000000	      0.00000000	     19.77188100	      0.38289972	    -10.66828233	     20.61533926	      0.35980555	     -1.95184994	      0.00000000	      0.00000000	     -3.96482313	     -1.00138304	      6.54036157	     79.70999896	    -24.49197554	     40.10559153	     53.89214319	     84.55684173	      0.00000000	      0.00000000	     84.07507722	    -20.70059754	     50.04380220	     44.83824766	     81.46742037	      0.00000000	      0.00000000
      2.94500000	     -9.25255790	     -1.69278742	     -6.71806466	     -0.28784047	      1.03685777	     -1.04994091	     12.89850930	     -7.92680969	    -10.29500446	     87.53231798	      1.52772715	    -20.11515629	      0.00000000	      0.00000000	     19.95749703	      0.37644414	    -10.64428180	     20.87536456	      0.36434384	     -1.85703987	      0.00000000	      0.00000000	     -4.02282191	     -1.03325591	      6.51405538	     79.84069029	    -24.51762294	     40.11606570	     53.86014512	     84.74971190	      0.00000000	      0.00000000	     84.17200873	    -20.70228018	     50.13425865	     44.81338518	     81.30403856	      0.00000000	      0.00000000
